<svg xmlns="http://www.w3.org/2000/svg" xmlns:xlink="http://www.w3.org/1999/xlink" xml:space="preserve" version="1.1" style="shape-rendering:geometricPrecision;text-rendering:geometricPrecision;image-rendering:optimizeQuality;" viewBox="0 0 60000 75000" x="0px" y="0px" fill-rule="evenodd" clip-rule="evenodd"><defs><style type="text/css">
   
    .fil0 {fill:black;fill-rule:nonzero}
   
  </style></defs><g><path class="fil0" d="M28582.29 46965.43c529.59,171.09 1028.91,167.58 1477.3,28.56 488.7,-151.52 923.97,-465.15 1278.19,-890.7 472.87,-568.07 1316.84,-2460.49 2084.98,-4480.2 788.67,-2073.68 1485.2,-4257.84 1610.29,-5267.97 33.26,-268.52 54.26,-533.99 55.98,-787.91 1.75,-258.55 -14.64,-516.96 -55.76,-770.82 -91.78,-566.55 -276.33,-1013.87 -528.09,-1335.39 -184.2,-235.25 -405.53,-402.23 -652.5,-497.56 -247.47,-95.51 -526.4,-120.76 -825.23,-72.35 -420.06,68.05 -878.13,280.85 -1346.28,647.43 -253.2,198.27 -491.93,429.84 -715.36,679.43 -229.32,256.15 -441.05,528.73 -635.13,802.84 -534.42,754.74 -1633.91,3207.18 -2471.1,5530.55 -646.37,1793.8 -1130.44,3485.32 -1058.17,4194.59 52.02,510.5 246.99,992.42 563.05,1386.01 301.5,375.46 713.8,670.65 1217.83,833.49zm22741.81 -14194.3l603.17 1497.83 1838.63 1058.45 -1838.63 1058.48 -973.49 2417.4 -973.46 -2417.4 -1838.64 -1058.48 1838.64 -1058.45 973.46 -2417.41 370.32 919.58zm-86.11 1922.19l-284.2 -705.73 -335.53 833.21 -880.04 506.62 880.04 506.62 335.53 833.22 335.53 -833.22 880.05 -506.62 -880.05 -506.62 -51.33 -127.48zm2440.69 -9091.97l739.77 1837.06 2122.35 1221.8 -2122.35 1221.8 -1110.08 2756.63 -1110.08 -2756.63 -2122.36 -1221.8 2122.36 -1221.8 1110.08 -2756.63 370.31 919.57zm50.49 2261.42l-420.8 -1044.96 -472.14 1172.45 -1163.76 669.95 1163.76 669.96 472.14 1172.44 472.13 -1172.44 1163.77 -669.96 -1163.77 -669.95 -51.33 -127.49zm-10856.36 13565.59c-1.07,-137.52 109.55,-249.9 247.07,-250.97 137.52,-1.07 249.9,109.55 250.97,247.07 3.18,407.32 -65.07,862 -174.48,1323.4 -131.09,552.82 -323.48,1124.56 -522.34,1636.92 -49.61,128.36 -193.9,192.19 -322.26,142.58 -128.36,-49.61 -192.19,-193.9 -142.58,-322.26 189.67,-488.69 373.86,-1036.93 500.86,-1572.48 101.92,-429.82 165.57,-845.27 162.76,-1204.26zm-13868.82 -24446.97l2537.5 1936.12c589.47,-954.29 991.72,-1866.34 1168.42,-2614.04 80.21,-339.38 114.88,-634.83 99.45,-870.74 -7.57,-27.05 -12.4,-55.3 -14.12,-84.49 -7.49,-125.96 -83.66,-279.05 -204.24,-442.52 -305.94,-229.88 -936.45,-38.6 -1709.33,457.07 -591.29,379.2 -1238.08,932.17 -1877.68,1618.6zm3174.38 2422.06l9256.24 7062.55c76.91,58.68 141.15,123.23 193.73,192.52 30.55,7.07 60.76,17.86 90.01,32.61l5188.43 2625.69c216.82,109.73 410.89,244.23 581.09,398.08 419.94,379.58 682.37,869.67 775.16,1392.14 92.31,519.79 16.32,1071.84 -240.03,1578.39 -106.37,210.2 -245.14,413.33 -417.22,603.71 -124,137.17 -252.75,263.19 -384.64,376.33 -498.2,427.39 -1077.49,714.21 -1664.59,782.32 -614.57,71.28 -1229.01,-92.92 -1763.94,-576.47 -87.45,-79.05 -170.2,-163.68 -247.69,-254.01l-3770.67 -4395.39c-20.72,-24.22 -38.01,-50.21 -51.96,-77.37 -83.16,-31.48 -164.13,-76.21 -241.88,-135.53l-9272.88 -7075.24c-811.73,844.03 -1635.34,1489.78 -2358.74,1865.44 -862.18,447.72 -1622.74,527.49 -2135.79,143.15l-8.41 -6.25c-64.49,-49.21 -174.94,-129.11 -301.82,-220.92 -430.74,-311.64 -1044.73,-755.91 -1437.66,-1185.23 -6318.94,-2680.33 -13469.25,-11049.37 -16176.91,-14218.76 -565.03,-661.39 -929.59,-1088.11 -1011.83,-1150.86 -578.99,-441.78 -778.51,-1232.61 -633.06,-2154.04 132.55,-839.72 554.91,-1805.2 1235.61,-2697.33 681.35,-892.98 1500.4,-1555.31 2273.81,-1904.24 850.63,-383.77 1666.59,-400 2246.27,42.3 80.62,61.51 588.76,295.38 1375.38,657.41 3770.26,1735.19 13707.68,6309.36 17896.26,11761.79 446.29,161.42 1006.07,515.27 1463.74,925.49 187.9,168.43 361.73,349.36 508.36,534.8 221.45,195.5 360.85,467.89 423.68,800.35 13.53,58.98 22.3,117.24 25.7,174.48l0.23 5.13c35.29,343.71 -1.14,741.63 -104.32,1178.24 -199.52,844.28 -651.06,1865.12 -1309.66,2918.72zm8771.86 7696.93l-12474.96 -9518.44c-137.53,165.11 -273.9,336.01 -408.44,512.34 -197.91,259.38 -383.47,519.47 -556.02,777.93l12453.98 9502.43c103.22,78.76 299.44,-9.89 492.07,-164.94 101.29,-81.53 197.33,-181.01 281.21,-290.04 83.95,-109.1 154.02,-224.64 203.29,-338.13 89.71,-206.63 115.03,-400.15 8.87,-481.15zm821.24 512c-24.49,94.83 -57.79,190.2 -98.85,284.77 -77.21,177.83 -181.62,351.88 -303.29,510.01 -121.72,158.22 -262.55,303.75 -412.47,424.42 -95.1,76.55 -194.19,143.62 -295.53,198.93l3489.85 4068.04c59.77,69.68 118.41,130.26 175.81,182.15 346.15,312.9 742.8,419.28 1138.94,373.33 423.61,-49.14 854.8,-267.4 1236.45,-594.82 111.47,-95.62 216.15,-197.56 312.78,-304.45 120.75,-133.59 219.03,-277.91 295.34,-428.71 175.92,-347.63 228.19,-725.87 165.03,-1081.51 -62.68,-352.97 -239.44,-683.58 -522.04,-939.02 -115.68,-104.57 -251.17,-197.8 -406.09,-276.2l-4775.93 -2416.94zm-12201.23 -6164.86l-2485.38 -1896.35c-413.81,704.91 -721.99,1381.23 -908.75,1978.63 -274.8,879.04 -292.23,1539.16 12.86,1771.94 241.79,184.49 707.76,92.63 1294.2,-211.9 632.7,-328.56 1359.32,-895.9 2087.07,-1642.32zm-4389.57 1108.96c9.79,-377.27 89.05,-803.9 232.94,-1264.18 339.18,-1084.91 1038.93,-2398.12 2018.84,-3682.4 979.66,-1283.94 2061.25,-2305.43 3017.96,-2918.99 458.44,-294.01 897.28,-497.21 1296.46,-596.9 -322.65,-240.83 -650.69,-426.12 -893.33,-496.1 -17.46,-3.31 -34.72,-7.81 -51.64,-13.43 -20.69,-4.76 -40.65,-8.59 -59.77,-11.36 -434.23,-63 -1096.55,224.92 -1852.5,776.42 -793.42,578.83 -1660.66,1438.89 -2464.36,2492.23 -757.71,993.06 -1335.12,1996.81 -1691.32,2880.03 -346.37,858.85 -480.53,1580.95 -360.26,2033.73 9.62,36.21 32.43,78.21 65.91,124.69 42.34,33.78 76.69,75.4 101.81,121.79 152.48,163.65 388.87,360.66 639.26,554.47zm-1644.53 -1100.35c-11.61,-564.06 147.81,-1264.09 457.19,-2031.21 382.11,-947.48 996.06,-2017.08 1797.56,-3067.53 848.33,-1111.83 1774.51,-2027.51 2629.98,-2651.61 606.59,-442.53 1188.95,-742.42 1699.59,-869.59 -4285.54,-5071.45 -13581.06,-9350.19 -17180.46,-11006.74 -834.44,-384.04 -1373.46,-632.12 -1525.38,-748.03 -326.93,-249.45 -850.91,-211.52 -1433.77,51.44 -660.08,297.8 -1368.09,874.84 -1967.55,1660.5 -600.09,786.49 -969.84,1621.17 -1082.49,2334.83 -99.76,631.95 2.34,1147.81 329.94,1397.78 148.61,113.38 534.92,565.59 1133.71,1266.48 2567.42,3005.23 9179.79,10744.72 15141.68,13663.68zm-7923.88 20252.22c5.78,-0.87 11.55,-1.58 17.31,-2.19 475.66,-789.04 895.88,-1413.64 1176.61,-1731.72 245.34,-278 506.64,-549.31 780.27,-796 281.62,-253.87 581.02,-487.35 896.54,-683.99 621.9,-387.6 1230.48,-589.12 1788.62,-619.07 444.35,-23.84 856.19,61.03 1218.62,247.58 363.48,187.09 671.73,473.53 907.71,852.15 285.13,457.5 463.24,1050.74 501.57,1765.05 16.28,303.2 3.35,605.04 -30.59,902.17 -33.67,294.69 -87.71,585.64 -154.17,869.21 -124.39,530.82 -428,1344.55 -830.32,2280.33 122.28,240.46 227.29,484.76 311.9,745.76 1437.48,-3427.75 2687.68,-6160.06 3308.78,-6905.81 595.35,-714.83 1115.5,-1195.28 1621.08,-1533.95 518.4,-347.25 1014.07,-543.22 1552.29,-685.2 6.01,-1.58 12.02,-2.99 18.03,-4.28 388.61,-835.63 739.48,-1501.42 984.17,-1846.98 212.91,-300.71 443.67,-598.03 691.37,-874.72 253.58,-283.27 526.47,-547.61 818.5,-776.29 577.35,-452.09 1160.78,-717.53 1711.9,-806.81 439.02,-71.12 857.47,-30.68 1237.73,116.09 380.76,146.97 717.7,398.96 993.12,750.7 332.65,424.81 573.18,995.54 687.47,1701.01 48.03,296.52 67.18,597.83 65.14,898.94 -2.07,305.74 -24.21,599.97 -59.1,881.67 -66.95,540.63 -282.05,1382.18 -582.36,2355.91 265.91,408.33 477.8,837.02 626.14,1365.35 164.25,585.05 247.6,1287.97 236.06,2218.73 -3.72,300.55 -118.22,850.75 -321.99,1600.02 190.37,-164.85 375.93,-306.57 559.55,-429.57 518.42,-347.26 1014.09,-543.21 1552.3,-685.18 6,-1.58 12.01,-2.99 18.02,-4.28 388.61,-835.63 739.48,-1501.42 984.17,-1846.98 212.9,-300.71 443.66,-598.03 691.36,-874.73 253.59,-283.28 526.48,-547.63 818.52,-776.3 577.35,-452.08 1160.76,-717.52 1711.88,-806.79 439.02,-71.12 857.47,-30.68 1237.75,116.1 380.78,146.98 717.71,398.98 993.13,750.71 332.63,424.81 573.17,995.53 687.46,1701 48.03,296.5 67.17,597.82 65.13,898.93 -2.07,305.75 -24.21,599.98 -59.1,881.68 -66.94,540.63 -282.05,1382.17 -582.36,2355.9 265.92,408.32 477.82,837.01 626.16,1365.35 164.25,585.03 247.61,1287.96 236.04,2218.74 -9.04,730.11 -390.94,2255.55 -977.99,4189.68 -580.85,1913.75 -1360.77,4231.12 -2176.26,6570.05 -72.48,207.96 -299.85,317.79 -507.81,245.31 -207.96,-72.48 -317.79,-299.85 -245.31,-507.81 815.95,-2340.25 1593.7,-4650.35 2166.88,-6538.81 567,-1868.07 935.58,-3319.65 943.61,-3967.8 10.52,-846.46 -62.93,-1477.32 -207.92,-1993.74 -54.33,-193.51 -119.17,-371.56 -193.79,-539.64 -225.44,670.24 -477.1,1371.13 -738.39,2058.17 -792.86,2084.72 -1685.95,4064.42 -2219.38,4705.26 -451.59,542.5 -1015.2,945.03 -1656.32,1143.81 -599.63,185.92 -1261.11,192.63 -1955.45,-31.67 -660.07,-213.24 -1200.42,-600.33 -1595.94,-1092.87 -412.64,-513.85 -667.12,-1142.46 -734.93,-1807.89 -85.23,-836.38 421.14,-2652.15 1101.92,-4541.47 353.39,-980.72 755.49,-1988.19 1145.98,-2890.1 -230.28,95.62 -456.23,214.23 -685.6,367.87 -444.92,298.03 -910.25,729.95 -1452.35,1380.85 -13.2,15.87 -27.38,30.45 -42.36,43.73 -273.95,871.64 -607.45,1874.77 -985.74,2974.59 -1052.93,3061.25 -2479.27,6953.6 -3928.9,10838.07 -76.8,206.24 -306.26,311.18 -512.5,234.38 -206.24,-76.8 -311.18,-306.26 -234.38,-512.5 1428.48,-3827.77 2844.88,-7694.95 3919.52,-10819.33 1052.08,-3058.74 1750.34,-5323.66 1758.51,-5982.12 10.49,-846.44 -62.96,-1477.3 -207.94,-1993.73 -54.33,-193.5 -119.17,-371.55 -193.78,-539.63 -225.45,670.26 -477.11,1371.17 -738.41,2058.22 -792.86,2084.7 -1685.93,4064.37 -2219.36,4705.2 -451.58,542.51 -1015.18,945.03 -1656.31,1143.82 -599.63,185.92 -1261.1,192.64 -1955.44,-31.68 -660.09,-213.25 -1200.43,-600.33 -1595.95,-1092.87 -412.64,-513.85 -667.12,-1142.45 -734.93,-1807.89 -85.22,-836.38 421.14,-2652.15 1101.93,-4541.47 353.39,-980.72 755.48,-1988.2 1145.96,-2890.09 -230.27,95.62 -456.22,214.24 -685.59,367.88 -444.93,298.04 -910.25,729.96 -1452.34,1380.83 -642.08,770.94 -2109.52,4082.23 -3755.65,8075.38 -1657.53,4020.79 -3487.93,8720.86 -4848.32,12237.47 -79.39,205.38 -310.25,307.52 -515.63,228.13 -205.38,-79.39 -307.52,-310.25 -228.13,-515.63 1361.63,-3519.82 3193.9,-8224.64 4854.58,-12253.09l8.72 -21.13c-20.96,-386.97 -79.57,-718.37 -169.55,-1020.71 -8.02,-26.96 -16.3,-53.68 -24.81,-80.19 -295.67,642.34 -620.65,1312.25 -953.72,1967.29 -1011.31,1988.89 -2110.52,3862.07 -2708.41,4441.39 -507.41,491.66 -1110.83,831.93 -1769.05,961.03 -615.69,120.77 -1274.55,56.48 -1942.41,-241.33 -633.31,-282.41 -1128.99,-724.71 -1469.44,-1256.32 -355.13,-554.53 -540.88,-1206.12 -537.27,-1874.31 4.57,-844.95 701.38,-2596.74 1579.3,-4401.12 455.59,-936.37 962.69,-1894.41 1447.21,-2749.13 -239.35,70.39 -476.44,163.98 -720.12,291.85 -471.92,247.61 -980.02,627.26 -1589.8,1217.8 -694.12,672.18 -2110.41,3105.89 -3711.41,6079.97 -1618.11,3005.89 -3411.13,6543.17 -4849.16,9394.37 -99.24,196.75 -339.19,275.8 -535.94,176.56 -196.75,-99.24 -275.8,-339.19 -176.56,-535.94 1442.92,-2860.9 3241.47,-6409.16 4858.54,-9413.11 1634.19,-3035.74 3096.79,-5536.31 3858.27,-6273.73 667.01,-645.95 1236.16,-1068.25 1777.3,-1352.18 554,-290.7 1067.29,-432.7 1616.11,-516.17zm-1222.03 10483.34c506.84,226 1003.24,275.51 1464.29,185.07 502.54,-98.57 968.76,-363.7 1365.91,-748.53 531.76,-515.24 1573.13,-2306.59 2552.17,-4232.01 1006.06,-1978.58 1932.07,-4076.06 2164.03,-5065.94 60.05,-256.25 108.67,-517.21 138.53,-778.57 29.57,-258.91 41.08,-517.41 27.47,-770.93 -30.72,-572.45 -166.58,-1036.83 -382.81,-1383.79 -158.34,-254.05 -360.4,-443.79 -595.21,-564.65 -235.85,-121.4 -510.35,-176.29 -812.38,-160.08 -424.3,22.76 -902.33,185.55 -1407.36,500.31 -272.2,169.64 -534.46,374.64 -784.04,599.63 -257.55,232.19 -497.07,480.28 -717.77,730.36 -610.44,691.66 -1965.04,3012.83 -3046.48,5235.5 -834.89,1715.94 -1497.34,3345.58 -1501.18,4054.24 -2.78,513.82 139.76,1014.41 412.27,1439.93 259.92,405.86 638.58,743.64 1122.56,959.46zm23410.07 1238.33c529.6,171.08 1028.92,167.58 1477.31,28.55 488.69,-151.52 923.97,-465.15 1278.2,-890.69 472.87,-568.08 1316.86,-2460.53 2085,-4480.26 788.66,-2073.66 1485.18,-4257.78 1610.26,-5267.9 33.26,-268.53 54.26,-534 55.98,-787.92 1.75,-258.55 -14.63,-516.97 -55.75,-770.81 -91.78,-566.55 -276.33,-1013.86 -528.08,-1335.38 -184.2,-235.25 -405.53,-402.24 -652.51,-497.57 -247.48,-95.52 -526.41,-120.77 -825.25,-72.36 -420.06,68.04 -878.13,280.85 -1346.26,647.41 -253.21,198.27 -491.95,429.86 -715.38,679.44 -229.31,256.16 -441.04,528.73 -635.12,802.85 -534.43,754.74 -1633.92,3207.18 -2471.11,5530.55 -646.36,1793.8 -1130.44,3485.32 -1058.16,4194.59 52.02,510.5 246.98,992.43 563.05,1386.01 301.5,375.46 713.79,670.66 1217.82,833.49z"/></g><text x="0" y="60015" fill="#000000" font-size="5px" font-weight="bold" font-family="'Helvetica Neue', Helvetica, Arial-Unicode, Arial, Sans-serif">Created by Olena Panasovska</text><text x="0" y="60020" fill="#000000" font-size="5px" font-weight="bold" font-family="'Helvetica Neue', Helvetica, Arial-Unicode, Arial, Sans-serif">from the Noun Project</text></svg>