<svg xmlns="http://www.w3.org/2000/svg" version="1.1" viewBox="-5.0 -10.0 110.0 135.0">
 <path d="m99.355 39.027c-0.14844-0.10938-3.7227-2.6914-7.8047-4.3164-2.1523-0.85938-3.8672-1.4922-5.0273-1.9062-0.65625-0.39453-1.2969-0.79688-1.8789-1.2109-7.9258-5.5508-16.973-11.648-24.18-14.953-8.5039-6.0234-19.113-10.754-22.473-11.871-4.9297-1.6445-9.8242-1.6445-14.559-1.6445-5.5352 0-19.637 10.086-21.227 11.234-0.69922 0.50781-0.85547 1.4844-0.35156 2.1836 0.50391 0.69922 1.4805 0.85547 2.1836 0.35156 5.6875-4.1133 15.988-10.641 19.398-10.641 4.6914 0 9.1211 0 13.566 1.4805 5.3672 1.7891 24.723 11.113 30.445 19.699 2.5078 3.7656 3.6758 5.918 5.7969 9.8281 1.4531 2.6836 3.4492 6.3555 6.6484 11.957 3.7578 6.5703 8.0781 15.984 10.891 22.363-1-0.03125-2.0352 0.21875-2.9688 0.75391-0.85547 0.48828-1.5273 1.168-1.9844 1.9531-6.1367-10.348-16.688-28.078-18.906-31.398-0.48047-0.71484-1.4531-0.90625-2.168-0.43359-0.71875 0.48047-0.91016 1.4492-0.43359 2.168 2.4492 3.6641 16.152 26.742 21.812 36.312-0.94922 0.10547-1.9258 0.46875-2.9375 1.1367-0.90234 0.59766-1.543 1.3164-1.9453 2.125-17.332-24.348-23.289-33.324-25.23-36.562-0.44141-0.74219-1.4023-0.98438-2.1445-0.53906-0.74219 0.44141-0.98047 1.4023-0.53906 2.1406 2.6758 4.4648 10.32 15.586 22.734 33.066-0.65625 0.19531-1.3203 0.51172-1.9766 0.96875-0.85156 0.58984-1.5039 1.4102-1.8984 2.3281-8.5273-9.875-21.594-26.566-24.027-30.219-0.48047-0.71875-1.4492-0.91016-2.168-0.43359-0.71875 0.48047-0.91016 1.4492-0.43359 2.168 1.5312 2.2969 6.9258 9.332 12.871 16.75-1.1758-0.066407-2.3633 0.30078-3.3672 1.1562-0.74219 0.63281-1.1953 1.3789-1.4531 2.1562-3.5117-3.4062-7.9297-7.918-11.801-12.559-2.9961-3.5898-5.9805-6.1641-8.6172-8.4297-3.9062-3.3633-7.2773-6.2656-9.9336-11.578-1.7852-3.5703-2.1172-6.418-2.3867-8.7031-0.41406-3.543-0.77344-6.6055-6.5195-7.7539-0.85156-0.17578-1.6719 0.37891-1.8398 1.2266-0.16797 0.84766 0.37891 1.668 1.2266 1.8398 3.5195 0.70312 3.6367 1.7109 4.0273 5.0508 0.070312 0.60547 0.14844 1.2734 0.25781 1.9922-1.4219 1.0352-2.7578 2.0547-3.5234 2.8203l-12.492 12.496c-0.60938 0.60938-0.60938 1.5977 0 2.2109 0.30469 0.30469 0.70312 0.45703 1.1055 0.45703 0.39844 0 0.80078-0.15234 1.1055-0.45703l12.5-12.5c0.44531-0.44531 1.2422-1.0781 2.0352-1.6758 0.38281 1.3438 0.91797 2.8086 1.7148 4.3945 2.9375 5.875 6.7031 9.1172 10.691 12.551 2.668 2.2969 5.4258 4.6719 8.2539 8.0625 5.8906 7.0625 13.078 13.809 16.535 16.965 1.6758 1.7422 3.9844 3.8984 4.6016 4.3711 0.51953 0.39844 1.1133 0.56641 1.7305 0.56641 1.1953 0 2.4766-0.63672 3.457-1.5 0.79297-0.69922 1.332-1.4883 1.6094-2.2812 3.0273 3.5898 5.7344 6.6641 7.6211 8.5703 1.3086 1.6367 2.7734 3.3867 3.2539 3.6328 0.39844 0.20703 0.82812 0.29297 1.2656 0.29297 1.6914 0 3.5156-1.2656 4.1367-1.7383 0.52734-0.40234 1.0781-0.89844 1.5195-1.4531 2.2734 2.7891 3.2539 3.0664 3.9062 3.0664 0.082031 0 0.15625-0.003907 0.22656-0.007813 1.625-0.085937 4.9492-2.5039 5.5742-3.8086 0.46094-0.96094 0.31641-2.25-1.5547-5.6484 2.0273-0.31641 3.9375-1.8711 4.6172-2.8242 1.1094-1.5586 0.32031-4.0703-1.2031-7.3633-0.19922-0.42969-0.39453-0.83594-0.58984-1.2266-1.7734-4.2148-8.1875-19.227-13.535-28.582-0.1875-0.32812-0.35547-0.62891-0.53516-0.94141 1.1094 0.36719 2.2773 0.6875 3.5508 0.875 0.78125 0.11328 1.5039 0.16406 2.1719 0.16406 4.0664 0 6.2109-1.875 7.2969-3.4375 2.8086-0.63281 4.5273-2.9922 4.6211-3.1211 0.49609-0.69922 0.33594-1.6641-0.35547-2.168zm-35.527 45.52c-0.60156 0.58984-1.2266 0.82812-1.4688 0.85156-0.90625-0.74219-4.4336-4.1094-5.4102-5.375-0.32422-0.41797-0.92188-1.7031 0.15625-2.6211 0.96875-0.82812 2.0234-0.30859 2.6289 0.38672l0.98438 1.1211c1.4375 1.6289 3.0703 3.4766 3.7461 4.6289 0.011718 0.11328-0.13672 0.51953-0.63672 1.0078zm15.867 9.5508c-0.98437-1.1016-4.043-4.9414-4.4727-5.5508-0.34375-0.48828-0.34766-0.96875-0.28906-1.2891 0.097656-0.55078 0.44141-1.0664 0.94531-1.4141 0.80859-0.55859 1.9219-1.0273 2.6367-0.085938 0.85156 1.125 3.4375 4.957 4.2695 6.2773-0.52734 0.74609-2.2578 1.9102-3.0898 2.0664zm9.6211-0.17969c-0.44922-0.34766-1.7812-1.5977-4.6484-5.8242l-0.11719-0.17188c-0.23828-0.33984-0.77734-1.2109-0.63281-1.9844 0.085937-0.45312 0.41797-0.86719 1.0117-1.2617 0.66797-0.44531 1.2695-0.67578 1.75-0.67578 0.097656 0 0.19141 0.007812 0.27734 0.027344 0.40234 0.085937 0.77344 0.39844 1.1055 0.93359l0.18359 0.29297c2.8438 4.5312 3.5312 6.2148 3.6758 6.832-0.53906 0.5625-1.957 1.5469-2.6016 1.832zm3.2266-9.3047c-0.42578-0.19922-1.5391-1.5469-2.125-2.5781-0.49219-0.86328-1.9961-3.4961-2.125-5.2109-0.078125-1.0117 0.72656-1.5859 1.0742-1.7852 0.36328-0.20703 0.82812-0.35156 1.2812-0.35156 0.34375 0 0.67969 0.082031 0.96484 0.27734 0.50781 0.35156 1.2773 1.6367 2.2812 3.8125 1.5508 3.3516 1.457 4.2305 1.4922 4.2383-0.4375 0.61328-2.0859 1.7031-2.8438 1.5938zm-6.4766-40.113c-2.3867-0.34766-4.4453-1.2148-6.4297-2.0898-1.5273-2.7383-2.668-4.8359-3.6484-6.6445-2.1641-3.9922-3.3555-6.1875-5.9414-10.074-0.054687-0.085937-0.12109-0.16797-0.17969-0.25391 5.0508 3.1602 9.8594 6.5234 12.863 8.625-0.13281 1.0625-0.15625 3.0547 1.0703 5.0938 1.332 2.2227 3.707 3.832 7.0703 4.7969-1.2266 0.62891-2.8398 0.82031-4.8008 0.53906zm6.9297-3.2266c-3.2383-0.69922-5.4219-1.9375-6.4922-3.6719-0.37109-0.60156-0.55859-1.1914-0.65234-1.7148 1.1211 0.40625 2.6758 0.98828 4.5391 1.7266 2.1836 0.87109 4.25 2.0703 5.5898 2.9219-0.73828 0.53516-1.7734 1.0039-2.9883 0.74219z"/>
<text x="0.0" y="117.5" font-size="5.0" font-weight="bold" font-family="Arbeit Regular, Helvetica, Arial-Unicode, Arial, Sans-serif" fill="#000000">Created by Piyapong Khemawattana</text><text x="0.0" y="122.5" font-size="5.0" font-weight="bold" font-family="Arbeit Regular, Helvetica, Arial-Unicode, Arial, Sans-serif" fill="#000000">from Noun Project</text></svg>